<?xml version="1.0" encoding="utf-8"?>
<!-- Generator: Adobe Illustrator 16.0.0, SVG Export Plug-In . SVG Version: 6.00 Build 0)  -->
<!DOCTYPE svg PUBLIC "-//W3C//DTD SVG 1.1//EN" "http://www.w3.org/Graphics/SVG/1.1/DTD/svg11.dtd">
<svg version="1.1" id="Layer_1" xmlns="http://www.w3.org/2000/svg" xmlns:xlink="http://www.w3.org/1999/xlink" x="0px" y="0px"
	 width="260px" height="262px" viewBox="0 0 260 262" enable-background="new 0 0 260 262" xml:space="preserve">
<g>
	<g>
		<path d="M123.817,133.875c0.553,1.859,0.935,3.51,1.315,5.16c2.695,11.674,1.725,18.229-9.948,20.924
			c-12.85,2.967-18.193-0.27-30.218,2.507c-2.712,0.626-6.385,4.082-8.553,5.451c-0.535-1.243-0.953-2.512-1.225-3.691
			c-5.96-25.821,30.252-46.475,23.012-77.836c-1.334-5.778-6.005-8.798-9.424-8.008c-7.899,1.824-8.706,5.859-7.345,11.755
			c0.626,2.712,2.812,6.802,6.331,6.983c-2.439,3.419-5.323,5.451-8.153,6.104c-4.716,1.089-9.242-1.84-10.82-8.678
			c-1.851-8.018,2.484-18.829,20.287-22.939c16.152-3.729,24.143,2.375,26.783,13.811c6.069,26.292-23.45,45.277-29.562,63.453
			c5.07-1.17,12.171-1.071,21.712-2.777C116.618,144.105,118.658,141.648,123.817,133.875z"/>
		<path d="M171.561,56.663c1.823,7.899-0.852,14.602-9.812,16.67c-7.428,1.715-15.518,1.099-20.959,1.734l0.21,22.429
			c4.825-3.846,9.532-6.05,13.777-7.03c14.383-3.32,23.426,6.265,26.557,19.823c3.674,15.917-3.707,34.51-25.282,39.492
			c-11.083,2.558-22.691,3.375-26.366-12.542c-2.559-11.082,4.551-17.939,11.153-19.463c5.306-1.225,8.308-0.056,10.231,3.971
			c-6.059,2.268-9.714,6.341-7.836,14.477c1.606,6.956,7.429,7.971,12.734,6.746c9.786-2.26,11.091-15.973,8.315-27.998
			c-1.688-7.311-7.575-14.52-16.418-12.479c-6.484,1.497-12.333,6.821-16.16,10.685l-1.193-49.274
			c8.471-0.962,15.2-1.398,21.685-2.896c6.014-1.388,11.69-3.692,18.229-8.182C170.844,54.096,171.261,55.365,171.561,56.663z"/>
		<path d="M114.503,196.153l-0.182-11.476l-6.482-12.528c-3.023,1.97-4.372,5.198-3.47,9.103c0.418,1.812,0.945,1.989,1.054,2.301
			c-2.45,0.565-4.003-0.011-4.594-2.567c-1.09-4.722,4.401-10.739,10.33-12.107c0.498-0.115,0.967-0.187,1.438-0.257l6.023,11.997
			l2.345-13.816l2.343-0.541l-3.306,17.105l0.182,11.476L114.503,196.153z"/>
		<path d="M133.124,189.163c1.739-0.401,4.246-3.151,4.882-6.064l1.598-0.369c-1.179,4.123-3.759,8.497-8.34,9.555
			c-3.408,0.787-5.853-1.379-6.558-4.434c-1.041-4.508-0.951-12.867,5.511-14.359c2.911-0.672,4.823,0.157,5.396,2.643
			c1,4.332-3.077,7.891-6.352,9.096c0.061,0.584,0.147,1.125,0.246,1.551C130.048,189.123,131.739,189.482,133.124,189.163z
			 M131.822,175.103c-1.987,0.459-2.695,4.849-2.67,8.356c3.258-0.788,4.919-4.126,4.372-6.656
			C133.353,176.058,132.889,174.856,131.822,175.103z"/>
		<path d="M151.879,168.827l0.23,12.661c0.02,0.407,0.038,0.813,0.111,1.133c0.181,0.782,0.667,1.268,2.088,0.939
			c1.419-0.327,2.807-2.742,3.965-4.206l1.206-0.279c-1.256,2.01-4.177,7.66-6.947,8.299c-2.307,0.533-4.066,0.041-4.954-1.698
			c-0.729,1.701-1.99,3.526-4.155,4.026c-3.409,0.787-4.961-1.398-5.444-3.494c-1.41-6.106-0.897-13.929,6.204-15.567
			c0.852-0.197,1.821-0.046,2.584,0.339v-0.972L151.879,168.827z M142.551,184.145c0.491,2.13,1.754,2.249,2.641,2.044
			c0.817-0.188,1.417-1.148,1.862-2.3c-0.046-0.362-0.065-0.769-0.058-1.22l-0.183-9.868c-0.684-0.365-1.391-0.353-1.889-0.237
			C142.263,173.178,141.436,179.314,142.551,184.145z"/>
		<path d="M161.006,166.721l0.019,1.864c1.049-1.289,2.289-2.397,3.78-2.741c1.598-0.369,2.77,0.332,3.081,1.682
			c0.287,1.241-0.284,2.982-2.023,3.384c-1.988,0.459-1.536-2.114-2.601-1.868s-1.542,0.768-2.188,1.701l0.266,14.599l-5.111,1.181
			l-0.335-18.621L161.006,166.721z"/>
		<path d="M174.28,162.982l0.114,0.497c1.353,5.857,4.338,6.964,5.297,11.118c0.763,3.302-0.668,6.661-5.461,7.768
			c-4.083,0.942-6.343,0.229-7.146-3.249c-0.647-2.806,0.254-4.733,1.649-5.168c0.675-2.587,0.663-5.876,0.644-8.713L174.28,162.982
			z M170.141,178.26c-0.425,0.099-0.876,0.09-1.352-0.024c0.483,2.096,1.833,2.756,3.715,2.321c1.207-0.278,2.603-2.172,1.972-4.905
			c-0.508-2.201-2.54-3.715-3.636-8.136c-0.167,1.872-0.139,4.259-0.511,6.213c0.918,0.089,1.385,0.652,1.631,1.718
			C172.236,176.804,171.384,177.974,170.141,178.26z"/>
		<path d="M116.1,207.937c-0.296,0.068-0.616,0.025-0.921-0.194c0.43-0.412,0.605-1.172,0.465-1.781
			c-0.149-0.647-0.656-1.151-1.634-0.926c-1.015,0.234-1.582,0.986-1.347,2.003c0.669,2.9,4.862,2.106,5.813,6.225
			c0.601,2.604-0.931,4.728-3.904,5.413c-1.478,0.342-4.154,0.629-4.768-2.03c-0.401-1.737,0.678-2.959,2.101-3.287
			c0.831-0.191,1.412-0.033,1.713,0.597c-1.466,0.475-1.986,1.257-1.692,2.531c0.286,1.237,1.369,1.551,2.237,1.35
			c1.459-0.336,1.738-1.742,1.422-3.11c-0.801-3.471-4.965-3.308-5.6-6.058c-0.448-1.939,1.405-3.942,3.602-4.449
			c0.979-0.227,3.136-0.568,3.613,1.499C117.444,206.77,117.06,207.715,116.1,207.937z"/>
		<path d="M122.077,207.122l0.119,6.585c0.01,0.21,0.02,0.422,0.059,0.59c0.094,0.405,0.347,0.657,1.085,0.487
			c0.738-0.171,1.461-1.426,2.062-2.188l0.628-0.145c-0.653,1.047-2.173,3.983-3.614,4.316c-1.421,0.328-2.453-0.096-2.772-1.479
			c-0.064-0.277-0.101-0.6-0.107-0.968l-0.12-6.585L122.077,207.122z M120.324,203.403c0.812-0.188,1.631,0.323,1.818,1.136
			s-0.329,1.611-1.141,1.799s-1.607-0.309-1.795-1.121C119.018,204.404,119.511,203.591,120.324,203.403z"/>
		<path d="M131.983,211.447c-0.009,0.215,0.002,0.427,0.044,0.611c0.094,0.407,0.36,0.637,1.081,0.471
			c0.738-0.171,0.883-0.808,1.486-1.568l0.627-0.145c-0.653,1.045-1.596,3.363-3.037,3.695c-1.439,0.333-2.434-0.1-2.753-1.482
			c-0.068-0.297-0.1-0.601-0.107-0.968l-0.065-3.486c-0.001-0.175-0.021-0.345-0.056-0.493c-0.153-0.664-0.603-1.009-1.102-0.894
			c-0.443,0.103-0.746,0.308-1.073,0.656l0.152,7.822l-2.658,0.614l-0.174-9.684l2.659-0.614l0.009,1.049
			c0.629-0.729,1.377-1.368,2.189-1.556c0.996-0.23,2.37,0.579,2.655,1.818c0.034,0.146,0.068,0.295,0.065,0.449L131.983,211.447z"
			/>
		<path d="M138.13,204.797c-0.103-0.443-0.422-0.564-0.828-0.47c-1.552,0.357-1.854,3.597-1.394,5.591
			c0.252,1.091,0.678,1.925,1.805,1.664c1.311-0.303,2.185-1.32,2.812-2.478l0.627-0.145c-0.656,1.202-1.12,3.74-4.389,4.495
			c-1.533,0.354-2.726-0.265-3.229-2.443c-0.622-2.697-0.281-6.528,3.302-7.355c0.997-0.23,2.091-0.212,2.325,0.805
			c0.047,0.203,0.066,0.373,0.049,0.63c-0.106-0.033-0.267-0.055-0.488-0.004c-0.166,0.038-0.342,0.117-0.565,0.247
			C138.166,205.119,138.163,204.943,138.13,204.797z"/>
		<path d="M139.963,209.623c-0.541-2.344-0.494-6.692,2.866-7.469c1.515-0.35,2.509,0.083,2.808,1.375
			c0.52,2.253-1.601,4.104-3.304,4.731c0.03,0.304,0.077,0.585,0.128,0.807c0.281,1.22,0.976,1.448,1.696,1.282
			c0.867-0.201,1.491-0.87,2.091-1.728c0.46,1.994-1.027,2.881-2.874,3.307C141.602,212.338,140.33,211.213,139.963,209.623z
			 M143.665,202.994c-1.034,0.238-1.402,2.521-1.39,4.346c1.695-0.411,2.559-2.146,2.274-3.462
			C144.461,203.49,144.22,202.866,143.665,202.994z"/>
		<path d="M154.749,209.303l-2.66,0.614l-0.222-12.084l-1.755,0.405l0.025-0.902c1.017-0.234,2.431-0.677,4.357-2.523
			L154.749,209.303z"/>
		<path d="M162.22,200.304c0.213,0.923-0.716,1.955-2.082,2.271c-1.847,0.427-3.008-1.153-3.349-2.63
			c-0.708-3.066,0.855-5.896,3.533-6.515c2.861-0.66,4.028,1.19,4.564,3.517c1.284,5.559-0.146,10.148-4.043,11.048
			c-1.422,0.328-2.407-0.32-2.577-1.059c-0.137-0.59,0.233-1.261,1.329-1.571c-0.143,0.227-0.165,0.467-0.114,0.688
			c0.119,0.518,0.627,0.945,1.181,0.817c0.48-0.11,3.237-1.06,2.036-8.872c-0.062-0.356-0.116-0.673-0.185-0.97
			c-0.528-2.29-1.265-2.529-2.243-2.303c-1.2,0.277-1.863,2.629-1.42,4.549c0.179,0.774,0.624,1.858,1.474,1.663
			c0.683-0.158,1.162-0.521,1.295-1.466C161.949,199.725,162.151,200.009,162.22,200.304z"/>
		<path d="M166.875,202.691c-0.388-1.681,0.273-3.699,2.382-4.848c-1.234-0.377-1.929-1.188-2.15-2.149
			c-0.409-1.772,0.846-4.006,3.283-4.568c2.326-0.537,3.776,0.431,4.108,1.871c0.286,1.237-0.263,2.821-1.788,4.05
			c1.68,0.117,2.609,1.109,2.899,2.365c0.52,2.253-1.008,5.406-3.981,6.093C169.099,206.089,167.314,204.594,166.875,202.691z
			 M172.833,200.616c-0.238-1.033-0.832-2.005-1.806-2.52c-1.299,1.37-1.624,3.331-1.312,4.679c0.243,1.052,0.868,1.743,1.737,1.543
			C172.707,204.028,173.213,202.26,172.833,200.616z M172.033,193.021c-0.184-0.794-0.64-1.254-1.268-1.108
			c-1.199,0.276-1.61,1.616-1.32,2.872c0.192,0.832,0.701,1.608,1.494,2.009C171.989,195.695,172.28,194.093,172.033,193.021z"/>
		<path d="M181.683,195.811c0.213,0.924-0.717,1.956-2.083,2.271c-1.847,0.426-3.009-1.154-3.35-2.631
			c-0.707-3.065,0.856-5.896,3.533-6.515c2.862-0.66,4.029,1.191,4.565,3.517c1.283,5.559-0.146,10.148-4.042,11.048
			c-1.423,0.328-2.408-0.32-2.579-1.059c-0.136-0.59,0.234-1.261,1.329-1.571c-0.142,0.228-0.163,0.467-0.112,0.688
			c0.119,0.518,0.626,0.946,1.18,0.818c0.48-0.111,3.237-1.061,2.037-8.873c-0.063-0.356-0.117-0.673-0.186-0.97
			c-0.529-2.289-1.265-2.528-2.243-2.303c-1.2,0.277-1.863,2.629-1.42,4.55c0.179,0.774,0.623,1.858,1.474,1.662
			c0.683-0.158,1.163-0.521,1.295-1.466C181.412,195.231,181.614,195.516,181.683,195.811z"/>
	</g>
	<g>
		<path fill="none" d="M108.083,36.062c-52.349,12.085-85.107,64.506-73.021,116.855c12.085,52.35,64.506,85.106,116.856,73.021
			c52.349-12.085,85.105-64.506,73.021-116.855C212.854,56.734,160.433,23.977,108.083,36.062z"/>
		<path d="M101.785,8.779C34.392,24.337-7.778,91.823,7.779,159.216c15.558,67.393,83.043,109.563,150.437,94.005
			c67.394-15.558,109.563-83.044,94.005-150.436C236.663,35.392,169.178-6.779,101.785,8.779z M225.82,62.29l-12.889,9.551
			L210.826,69l12.89-9.55L225.82,62.29z M213.835,48.083l-3.416,12.615l0.029,0.033l8.103-7.657l2.43,2.568l-11.66,11.021
			l-3.175-3.359l3.49-12.934l-0.031-0.033l-8.3,7.845l-2.427-2.567l11.657-11.021L213.835,48.083z M202.458,38.03
			c0.644,0.499,1.209,1.034,1.692,1.608c0.482,0.574,0.828,1.175,1.038,1.805c0.209,0.631,0.252,1.292,0.125,1.987
			c-0.126,0.695-0.478,1.413-1.05,2.154c-0.69,0.897-1.515,1.478-2.466,1.746c-0.95,0.268-1.938,0.138-2.964-0.388l-0.916,7.854
			l-3.353-2.591l1.268-7.124l-1.381-1.068l-3.92,5.073l-2.799-2.162l9.812-12.692L202.458,38.03z M188.709,28.764l-1.742,17.408
			l-3.48-1.947l0.452-3.641l-5.437-3.043l-2.828,2.313l-3.4-1.903l13.885-10.614L188.709,28.764z M176.896,22.691l-1.154,3.051
			l-6.888-2.607l-1.059,2.797l6.506,2.463l-1.155,3.052l-6.506-2.463l-1.155,3.052l7.268,2.751l-1.153,3.052l-10.576-4.004
			l5.681-15.004L176.896,22.691z M153.431,15.379l3.438,0.827l-2.988,12.426l6.367,1.531l-0.763,3.172l-9.806-2.358L153.431,15.379z
			 M32.003,65.258l2.79,1.691l-3.817,6.297l2.557,1.551l3.607-5.948l2.79,1.692l-3.606,5.949l2.79,1.691l4.03-6.645l2.79,1.691
			l-5.863,9.668l-13.718-8.319L32.003,65.258z M19.934,88.566l11.227,0.458l0.018-0.042l-8.102-7.821l1.479-3.483l12.182,12.36
			l-1.106,2.607l-17.273-0.367L19.934,88.566z M14.744,106.828c-0.135-1.119-0.056-2.288,0.237-3.507
			c0.292-1.22,0.753-2.297,1.382-3.234c0.629-0.936,1.389-1.693,2.281-2.272c0.893-0.578,1.896-0.955,3.01-1.129
			c1.114-0.176,2.295-0.113,3.544,0.187c1.249,0.3,2.33,0.781,3.242,1.442c0.913,0.662,1.636,1.453,2.168,2.373
			c0.533,0.92,0.866,1.941,1.001,3.061c0.136,1.12,0.057,2.29-0.236,3.508c-0.293,1.219-0.754,2.297-1.382,3.234
			c-0.629,0.936-1.389,1.693-2.281,2.272c-0.893,0.578-1.896,0.955-3.01,1.13c-1.114,0.175-2.295,0.113-3.544-0.187
			c-1.248-0.301-2.33-0.781-3.242-1.442c-0.914-0.662-1.636-1.453-2.168-2.374C15.213,108.968,14.88,107.948,14.744,106.828z
			 M12.207,124.794l0.312-3.521l12.729,1.129l0.579-6.523l3.25,0.288l-0.89,10.044L12.207,124.794z M84.208,239.642
			c-0.753-0.314-1.437-0.685-2.052-1.114c-0.615-0.428-1.106-0.918-1.473-1.473c-0.365-0.555-0.578-1.183-0.637-1.887
			c-0.058-0.703,0.094-1.487,0.453-2.352c0.437-1.045,1.08-1.821,1.927-2.327c0.85-0.505,1.837-0.638,2.965-0.396l-1.157-7.823
			l3.91,1.631l0.627,7.208l1.61,0.672l2.469-5.918l3.262,1.36l-6.174,14.807L84.208,239.642z M94.635,243.604l0.83-3.154
			l7.122,1.871l0.761-2.893l-6.728-1.769l0.83-3.155l6.728,1.768l0.83-3.155l-7.517-1.975l0.829-3.156l10.937,2.874l-4.078,15.515
			L94.635,243.604z M121.595,245.621l-0.398,3.101l-12.586-1.615l0.398-3.101l4.54,0.581l1.644-12.81l3.505,0.449l-1.643,12.811
			L121.595,245.621z M138.663,248.758l-3.534,0.052l-0.09-5.98l-6.864,0.103l0.088,5.979l-3.534,0.054l-0.238-16.041l3.534-0.053
			l0.104,6.934l6.865-0.103l-0.104-6.934l3.534-0.053L138.663,248.758z M157.501,237.657c0.229,1.265,0.225,2.447-0.015,3.549
			c-0.236,1.103-0.67,2.083-1.299,2.94c-0.627,0.858-1.427,1.575-2.396,2.15c-0.972,0.574-2.073,0.973-3.308,1.196
			c-1.263,0.228-2.453,0.287-3.571,0.174s-2.146-0.468-3.083-1.066l1.969-3.119c0.564,0.405,1.167,0.68,1.808,0.824
			c0.641,0.146,1.406,0.138,2.297-0.024c0.745-0.133,1.395-0.382,1.95-0.743c0.556-0.362,1.01-0.809,1.357-1.34
			c0.351-0.531,0.583-1.13,0.7-1.795c0.118-0.666,0.111-1.364-0.021-2.092c-0.134-0.744-0.372-1.403-0.714-1.979
			s-0.77-1.05-1.282-1.426c-0.513-0.375-1.094-0.636-1.741-0.779s-1.343-0.148-2.087-0.014c-0.759,0.137-1.396,0.341-1.916,0.611
			c-0.519,0.27-0.926,0.523-1.221,0.762l0.464,2.564l2.832-0.513l0.58,3.212l-6.176,1.117l-1.492-8.251
			c0.929-0.721,1.93-1.302,3.001-1.74c1.073-0.438,2.188-0.764,3.348-0.974c1.233-0.224,2.405-0.235,3.517-0.036
			c1.11,0.198,2.109,0.589,2.998,1.173c0.889,0.583,1.637,1.35,2.247,2.298C156.854,235.287,157.273,236.395,157.501,237.657z
			 M172.604,240.968l-3.254-9.16c-0.168-0.47-0.396-0.878-0.688-1.223c-0.29-0.346-0.624-0.616-0.997-0.812
			c-0.374-0.196-0.779-0.309-1.215-0.338c-0.434-0.03-0.872,0.033-1.313,0.19c-0.442,0.156-0.819,0.382-1.13,0.677
			c-0.312,0.296-0.553,0.638-0.72,1.025c-0.165,0.388-0.253,0.808-0.261,1.259c-0.008,0.452,0.072,0.912,0.239,1.383l3.253,9.159
			l-3.331,1.184l-3.299-9.288c-0.319-0.896-0.477-1.77-0.475-2.62s0.171-1.647,0.508-2.394c0.338-0.744,0.848-1.415,1.534-2.012
			s1.549-1.079,2.586-1.448c1.055-0.374,2.035-0.545,2.944-0.517c0.908,0.029,1.728,0.228,2.46,0.593
			c0.729,0.366,1.365,0.877,1.904,1.537c0.536,0.657,0.966,1.435,1.284,2.332l3.3,9.287L172.604,240.968z M200.865,225.222
			l-7.62-10.259l-5.256,3.904l-1.62-2.182l1.586,16.992l-2.564,1.405l-13.826-10.722l3.498-1.915l2.845,2.319l5.465-2.992
			l-0.458-3.624l3.229-1.769l-0.101-0.135l8.096-6.011l9.564,12.88L200.865,225.222z M151.918,225.938
			c-52.35,12.085-104.771-20.672-116.856-73.021c-12.085-52.349,20.672-104.77,73.021-116.855
			c52.349-12.085,104.77,20.672,116.855,73.021C237.023,161.433,204.267,213.854,151.918,225.938z M219.979,83.183l6.464-11.734
			l-0.023-0.039l-9.925,5.647l-1.75-3.071l13.944-7.935l2.376,4.174l-6.316,11.442l0.023,0.039l9.688-5.514l1.75,3.073L222.266,87.2
			L219.979,83.183z M241.685,98.084l-3.403-1.422c0.305-0.624,0.476-1.264,0.513-1.92c0.038-0.655-0.097-1.409-0.405-2.262
			c-0.257-0.71-0.609-1.31-1.057-1.799c-0.45-0.489-0.967-0.861-1.547-1.117c-0.582-0.255-1.212-0.386-1.889-0.391
			c-0.677-0.006-1.362,0.117-2.058,0.369c-0.711,0.256-1.322,0.601-1.832,1.033c-0.512,0.433-0.909,0.933-1.192,1.502
			c-0.286,0.568-0.444,1.184-0.48,1.847c-0.033,0.663,0.077,1.349,0.336,2.06c0.259,0.725,0.567,1.32,0.92,1.788
			c0.352,0.467,0.671,0.825,0.954,1.077l2.451-0.884l-0.976-2.707l3.07-1.107l2.127,5.905l-7.887,2.843
			c-0.865-0.796-1.604-1.686-2.215-2.67c-0.611-0.984-1.117-2.03-1.516-3.139c-0.427-1.179-0.633-2.333-0.623-3.461
			c0.013-1.128,0.231-2.178,0.66-3.151c0.427-0.973,1.059-1.84,1.892-2.598c0.835-0.758,1.857-1.356,3.064-1.791
			c1.208-0.435,2.377-0.627,3.503-0.576c1.127,0.052,2.164,0.316,3.115,0.792c0.95,0.476,1.788,1.145,2.519,2.006
			c0.728,0.862,1.305,1.883,1.729,3.062c0.436,1.208,0.69,2.373,0.765,3.494C242.299,95.988,242.118,97.061,241.685,98.084z"/>
		<path d="M198.75,43.512c0.295,0.198,0.59,0.341,0.887,0.427c0.296,0.086,0.592,0.091,0.89,0.015
			c0.297-0.075,0.579-0.286,0.848-0.633c0.25-0.322,0.384-0.63,0.4-0.923c0.015-0.293-0.039-0.568-0.163-0.827
			c-0.126-0.258-0.306-0.508-0.541-0.747c-0.235-0.239-0.479-0.456-0.729-0.649l-1.828-1.415l-2.231,2.887l1.649,1.275
			C198.184,43.115,198.455,43.312,198.75,43.512z"/>
		<path d="M20.091,109.312c0.562,0.375,1.203,0.649,1.923,0.822c0.734,0.176,1.434,0.224,2.098,0.143
			c0.665-0.081,1.271-0.282,1.822-0.601c0.551-0.318,1.021-0.745,1.415-1.28c0.393-0.535,0.676-1.169,0.853-1.903
			c0.177-0.734,0.21-1.43,0.104-2.084c-0.106-0.655-0.333-1.249-0.679-1.783c-0.346-0.533-0.796-0.987-1.351-1.361
			c-0.554-0.373-1.199-0.648-1.934-0.824c-0.719-0.174-1.416-0.22-2.088-0.141c-0.671,0.08-1.282,0.279-1.832,0.598
			c-0.55,0.318-1.021,0.745-1.414,1.279c-0.394,0.535-0.678,1.17-0.854,1.904c-0.176,0.734-0.21,1.43-0.104,2.084
			c0.107,0.655,0.333,1.249,0.678,1.782C19.074,108.482,19.528,108.936,20.091,109.312z"/>
		<polygon points="184.521,230.237 183.836,224.929 180.396,226.812 		"/>
		<path d="M86.365,233.384c-0.336-0.116-0.66-0.177-0.968-0.183c-0.308-0.005-0.596,0.067-0.864,0.217
			c-0.267,0.15-0.485,0.428-0.654,0.832c-0.156,0.377-0.205,0.708-0.145,0.996c0.061,0.286,0.184,0.538,0.372,0.756
			c0.188,0.218,0.426,0.41,0.716,0.581c0.289,0.169,0.58,0.315,0.873,0.438l2.133,0.89l1.404-3.367l-1.924-0.803
			C87.016,233.618,86.701,233.499,86.365,233.384z"/>
		<polygon points="185.064,32.074 180.931,35.473 184.352,37.387 		"/>
		<polygon points="186.144,216.381 186.369,216.686 186.331,216.278 		"/>
	</g>
</g>
</svg>
